<?xml version="1.0" standalone="no"?><!DOCTYPE svg PUBLIC "-//W3C//DTD SVG 1.1//EN" "http://www.w3.org/Graphics/SVG/1.1/DTD/svg11.dtd"><svg t="1492309201466" class="icon" style="" viewBox="0 0 1024 1024" version="1.1" xmlns="http://www.w3.org/2000/svg" p-id="1147" xmlns:xlink="http://www.w3.org/1999/xlink" width="200" height="200"><defs><style type="text/css"></style></defs><path d="M119.439276 575.968917 83.619466 575.968917c0-21.86703-7.529487-40.662095-22.589484-56.387241-15.059997-15.7231-33.142841-23.585161-54.244438-23.585161l0-36.811394c27.796066 0 57.373709 10.330276 77.174684 30.987758C103.761202 510.832408 119.439276 547.135218 119.439276 575.968917z" p-id="1148" fill="#ffffff"></path><path d="M238.142795 649.989771c-31.329543-37.155225-46.993291-82.777285-46.993291-136.866181 0-54.086849 15.663748-100.43648 46.993291-139.043776l35.681664 0c-31.422663 40.156582-47.13246 86.407975-47.13246 138.754181 0 52.251038 15.618723 97.968266 46.854121 137.1568L238.142795 649.990794z" p-id="1149" fill="#ffffff"></path><path d="M386.199853 390.769938c0 28.834722-15.679098 65.138556-35.480073 85.796038-19.800975 20.659529-49.379641 30.987758-77.174684 30.987758l0-36.811394c21.10262 0 39.184441-7.837502 54.244438-23.512507 15.059997-15.675004 22.589484-34.493605 22.589484-56.458873L386.199853 390.770961z" p-id="1150" fill="#ffffff"></path><path d="M576.142879 645.490294 448.131367 645.490294l0-30.280654 128.012536 0L576.143902 645.490294z" p-id="1151" fill="#ffffff"></path><path d="M750.868319 507.553735c-27.703969 0-63.036685-16.105816-82.883709-36.766368-19.850094-20.657482-29.772071-51.182706-29.772071-80.017428l35.81981 0c0 21.965268 7.552 40.783869 22.660092 56.458873 15.105023 15.675004 33.163307 23.512507 54.174853 23.512507L750.867296 507.553735z" p-id="1152" fill="#ffffff"></path><path d="M751.008512 649.989771c31.327496-39.092343 46.993291-84.809571 46.993291-137.1568 0-52.443419-15.757892-98.694813-47.272653-138.754181l35.81981 0c31.420617 38.316677 47.133483 84.666308 47.133483 139.043776 0 54.380538-15.712867 100.001575-47.133483 136.866181L751.008512 649.988748z" p-id="1153" fill="#ffffff"></path><path d="M1017.628896 495.996514c-21.011546 0-39.069831 7.862062-54.174853 23.585161-15.109116 15.725146-22.660092 34.520211-22.660092 56.387241l-35.81981 0c0-28.833699 9.921977-59.357899 29.772071-80.018451 19.847024-20.657482 55.17974-36.766368 82.883709-36.766368L1017.629919 495.996514z" p-id="1154" fill="#ffffff"></path></svg>