<?xml version="1.0" encoding="utf-8"?>
<!-- Generator: Adobe Illustrator 16.0.0, SVG Export Plug-In . SVG Version: 6.00 Build 0)  -->
<!DOCTYPE svg PUBLIC "-//W3C//DTD SVG 1.1//EN" "http://www.w3.org/Graphics/SVG/1.1/DTD/svg11.dtd">
<svg version="1.1" id="Layer_1" xmlns="http://www.w3.org/2000/svg" xmlns:xlink="http://www.w3.org/1999/xlink" x="0px" y="0px"
	 width="435.721px" height="85.242px" viewBox="0 0 435.721 85.242" enable-background="new 0 0 435.721 85.242"
	 xml:space="preserve">
<path fill="#C1272D" d="M162.586,43.555c0-5.032-1.505-9.854-4.477-14.34c-2.666-4.025-6.398-7.588-11.1-10.591
	c-9.074-5.796-21-8.989-33.579-8.989c-4.202,0-8.344,0.355-12.361,1.059c-2.489-2.333-5.407-4.432-8.494-6.091
	C76.081-3.392,62.402,4.415,62.402,4.415s12.72,10.447,10.65,19.604c-5.689,5.644-8.773,12.45-8.773,19.536
	c0,0.021,0.001,0.045,0.001,0.066s-0.001,0.045-0.001,0.068c0,7.084,3.083,13.891,8.773,19.533
	c2.068,9.158-10.649,19.604-10.649,19.604s13.681,7.806,30.175-0.188c3.087-1.658,6.004-3.759,8.494-6.091
	c4.021,0.701,8.159,1.058,12.361,1.058c12.58,0,24.505-3.189,33.579-8.984c4.699-3.004,8.434-6.564,11.1-10.592
	c2.972-4.484,4.477-9.311,4.477-14.34c0-0.021-0.001-0.045-0.001-0.066C162.586,43.6,162.586,43.576,162.586,43.555z"/>
<path fill="#FFFFFF" d="M113.433,16.748c23.293,0,42.177,12.062,42.177,26.941c0,14.877-18.884,26.94-42.177,26.94
	c-5.187,0-10.154-0.601-14.743-1.692c-4.664,5.609-14.924,13.41-24.891,10.89c3.242-3.479,8.045-9.365,7.017-19.058
	c-5.974-4.647-9.56-10.598-9.56-17.08C71.255,28.809,90.139,16.748,113.433,16.748"/>
<g>
	<g>
		<circle fill="#C1272D" cx="113.433" cy="44.555" r="5.603"/>
	</g>
	<g>
		<circle fill="#C1272D" cx="132.913" cy="44.555" r="5.603"/>
	</g>
	<g>
		<circle fill="#C1272D" cx="93.952" cy="44.556" r="5.602"/>
	</g>
</g>
<g>
	<path fill="#CCCCCC" d="M113.433,67.084c-5.187,0-10.154-0.521-14.743-1.467c-4.118,4.293-12.6,10.064-21.39,9.854
		c-1.158,1.756-2.417,3.189-3.501,4.355c9.967,2.521,20.227-5.279,24.891-10.893c4.589,1.096,9.56,1.692,14.743,1.692
		c23.106,0,41.87-11.87,42.169-26.584C155.303,56.798,136.539,67.084,113.433,67.084z"/>
</g>
<text transform="matrix(1.0358 0 0 1 170.3601 62.1758)" fill="#F4F4F4" font-family="'AdobeSongStd-Light-GBpc-EUC-H'" font-size="54.5491">协同作业</text>
</svg>
